<svg xmlns="http://www.w3.org/2000/svg" width="72.243" height="72.243" viewBox="0 0 72.243 72.243">
    <g id="target" transform="translate(-2 -2)">
        <path id="Path_17" data-name="Path 17" d="M2.241,53.171l3.195,4.259L2.1,65.219a1.2,1.2,0,0,0,1.686,1.529L27.865,53.5a1.2,1.2,0,0,0,0-2.109L3.784,38.149A1.2,1.2,0,0,0,2.1,39.679l3.338,7.788L2.241,51.726a1.2,1.2,0,0,0,0,1.445ZM7.683,58.3l11.3-2.66-13.3,7.314Zm11.3-9.04L7.683,46.6,5.689,41.945Zm-11.68-.274,14.72,3.464L7.307,55.912l-2.6-3.464Z" transform="translate(0 7.346)" fill="#fff"/>
        <path id="Path_18" data-name="Path 18" d="M53.346,2a19.274,19.274,0,0,0-19.2,18.061H30.968L27.708,16.8l-1.7,1.7,1.557,1.557h-4.92a12.643,12.643,0,1,0,0,25.285H35.991l3.259,3.259,1.7-1.7L39.4,45.346H62.376a6.622,6.622,0,0,1,0,13.245H51.436l-3.259-3.259-1.7,1.7,1.557,1.557H29.265V61H48.031l-1.557,1.557,1.7,1.7L51.436,61h10.94a9.03,9.03,0,0,0,0-18.061H39.4l1.557-1.557-1.7-1.7-3.259,3.259H22.643a10.234,10.234,0,1,1,0-20.469h4.92l-1.557,1.557,1.7,1.7,3.259-3.259h3.175A19.254,19.254,0,1,0,53.346,2Zm0,36.122a16.866,16.866,0,0,1-16.8-15.653h3.612a13.245,13.245,0,1,0,0-2.408H36.55a16.848,16.848,0,1,1,16.8,18.061ZM50.585,25.728,54.2,22.116a1.2,1.2,0,0,0,0-1.7L50.585,16.8l-1.7,1.7,1.557,1.557H42.581a10.837,10.837,0,1,1,0,2.408h7.859l-1.557,1.557Z" transform="translate(1.632)" fill="#fff"/>
        <path id="Path_19" data-name="Path 19" d="M53.224,19.224A7.232,7.232,0,0,0,46,12v2.408a4.816,4.816,0,0,1,0,9.632v2.408A7.232,7.232,0,0,0,53.224,19.224Z" transform="translate(8.978 2.041)" fill="#fff"/>
    </g>
</svg>
