<svg xmlns="http://www.w3.org/2000/svg" width="482.292" height="530.409" viewBox="0 0 482.292 530.409">
    <g id="Group_797" data-name="Group 797" transform="translate(-1335.854 -489.591)">
        <g id="Funding_Platform" data-name="Funding Platform" transform="translate(765.251 267.839)" opacity="0.8">
            <g id="Group_101" data-name="Group 101" transform="translate(570.603 221.751)">
                <g id="Group_78" data-name="Group 78" transform="translate(89.935 52.814)">
                    <path id="Path_11" data-name="Path 11" d="M685.7,557.99l-173-10.853c-8.524,0-14.279-8.627-12.854-19.271L541.2,149.154c1.424-10.643,19.949-27.511,28.469-27.511H750.392c8.519,0,14.275,8.627,12.85,19.265l-51.82,386.958C710,538.509,694.219,557.99,685.7,557.99Z" transform="translate(-488.553 -121.643)" fill="#6ec177"/>
                    <path id="Path_12" data-name="Path 12" d="M760.739,142.918,708.9,528.424c-1.19,9.112-7.41,16.8-14.606,18.7h-.044a11.77,11.77,0,0,1-3.366.424H510.211a11.678,11.678,0,0,1-3.919-.633,18.212,18.212,0,0,1-1.7-.743c-5.282-2.861-8.351-9.7-7.241-17.751l1.15-8.584,3.747-27.865L535.212,246.5l13.925-103.585a18.328,18.328,0,0,1,.641-3.07c.04-.16.04-.264.084-.424.044-.1.044-.215.084-.319,2.641-8.848,9.714-15.418,17.251-15.418H747.876C756.4,123.687,762.146,132.271,760.739,142.918Z" transform="translate(-497.122 -110.742)" fill="#98e1a0"/>
                    <path id="Path_13" data-name="Path 13" d="M681.328,504.567H506.967c-4.68,0-7.843-4.651-7.06-10.385L548.6,137.76c.783-5.734,5.215-10.38,9.9-10.38H732.852c4.685,0,7.847,4.646,7.064,10.38L691.228,494.182C690.445,499.916,686.013,504.567,681.328,504.567Z" transform="translate(-487.994 -91.046)" fill="#fff"/>
                    <path id="Path_14" data-name="Path 14" d="M556.007,193.083h0c-.818,0-1.371-.95-1.234-2.128l6.339-54.258c.137-1.178.911-2.128,1.729-2.128h0c.818,0,1.371.95,1.234,2.128l-6.334,54.258C557.6,192.133,556.826,193.083,556.007,193.083Z" transform="translate(-299.83 -64.55)" fill="#fff"/>
                    <path id="Path_15" data-name="Path 15" d="M554.971,184.435h-.553c-.663,0-1.115-.773-1-1.723l4.114-35.245c.115-.95.743-1.723,1.411-1.723h.553c.668,0,1.114.773,1,1.723l-4.114,35.245C556.267,183.663,555.639,184.435,554.971,184.435Z" transform="translate(-304.469 -14.239)" fill="#fff"/>
                </g>
                <g id="Group_80" data-name="Group 80" transform="translate(0 81.708)">
                    <rect id="Rectangle_3" data-name="Rectangle 3" width="85.127" height="77.732" rx="1.528" transform="translate(4.772 6.206)" fill="#6ec177"/>
                    <rect id="Rectangle_4" data-name="Rectangle 4" width="85.127" height="77.715" rx="1.525" fill="#fff"/>
                    <g id="Group_79" data-name="Group 79" transform="translate(13.243 15.93)">
                        <path id="Path_16" data-name="Path 16" d="M486.067,136.863v23.388c0,2.035-1.136,3.719-2.553,3.719h-1.867c-1.417,0-2.593-1.684-2.593-3.719V136.863c0-2.029,1.176-3.713,2.593-3.713h1.867C484.931,133.15,486.067,134.834,486.067,136.863Z" transform="translate(-479.054 -115.912)" fill="#6ec177"/>
                        <rect id="Rectangle_5" data-name="Rectangle 5" width="7.013" height="45.735" rx="0.646" transform="translate(11.635 2.32)" fill="#6ec177"/>
                        <path id="Path_17" data-name="Path 17" d="M491.823,135.877v28.785c0,2.035-1.136,3.719-2.553,3.719H487.4c-1.417,0-2.553-1.684-2.553-3.719V135.877c0-2.035,1.136-3.656,2.553-3.656h1.867C490.687,132.221,491.823,133.842,491.823,135.877Z" transform="translate(-461.582 -120.323)" fill="#6ec177"/>
                        <path id="Path_18" data-name="Path 18" d="M494.751,133.864V174.49c0,2.035-1.136,3.719-2.593,3.719h-1.826c-1.417,0-2.594-1.684-2.594-3.719V133.864c0-2.092,1.176-3.713,2.594-3.713h1.826C493.615,130.151,494.751,131.772,494.751,133.864Z" transform="translate(-452.876 -130.151)" fill="#6ec177"/>
                        <path id="Path_19" data-name="Path 19" d="M497.649,138.529v13.812c0,2.035-1.176,3.719-2.593,3.719h-1.827c-1.457,0-2.594-1.684-2.594-3.719V138.529c0-2.087,1.136-3.713,2.594-3.713h1.827C496.473,134.816,497.649,136.443,497.649,138.529Z" transform="translate(-444.14 -108.002)" fill="#6ec177"/>
                        <path id="Path_20" data-name="Path 20" d="M500.537,135.116v33.43c0,2.035-1.136,3.719-2.553,3.719h-1.867c-1.417,0-2.593-1.684-2.593-3.719v-33.43c0-2.029,1.176-3.713,2.593-3.713h1.867C499.4,131.4,500.537,133.087,500.537,135.116Z" transform="translate(-435.434 -124.207)" fill="#6ec177"/>
                        <path id="Path_21" data-name="Path 21" d="M482.864,137.682a12.824,12.824,0,0,0,3.2-3.018v18.4c0,2.035-1.136,3.719-2.553,3.719h-1.867c-1.417,0-2.593-1.684-2.593-3.719V139.716C480.311,139.021,481.647,138.5,482.864,137.682Z" transform="translate(-479.054 -108.724)" fill="#6ec177" style="mix-blend-mode: soft-light;isolation: isolate"/>
                        <path id="Path_22" data-name="Path 22" d="M485.762,133.715c1.056.7,2.108,1.4,3.2,1.977v26c0,2.035-1.176,3.719-2.593,3.719h-1.827c-1.417,0-2.593-1.684-2.593-3.719V134.066a2.349,2.349,0,0,1,1.907-1.219A4.2,4.2,0,0,1,485.762,133.715Z" transform="translate(-470.318 -117.351)" fill="#6ec177" style="mix-blend-mode: soft-light;isolation: isolate"/>
                        <path id="Path_23" data-name="Path 23" d="M490.851,134.165l.971-.874v26.291c0,2.035-1.136,3.719-2.553,3.719H487.4c-1.417,0-2.553-1.684-2.553-3.719v-23.8a4.989,4.989,0,0,0,3,.408A7.829,7.829,0,0,0,490.851,134.165Z" transform="translate(-461.582 -115.243)" fill="#6ec177" style="mix-blend-mode: soft-light;isolation: isolate"/>
                        <path id="Path_24" data-name="Path 24" d="M494.591,146.886a1.432,1.432,0,0,0,.16.466v16.307c0,2.035-1.136,3.719-2.593,3.719h-1.826c-1.417,0-2.594-1.684-2.594-3.719V133.074a2.883,2.883,0,0,1,.891-.523c2.148-.753,4.055,2.207,4.705,5.167C493.94,140.736,493.78,143.984,494.591,146.886Z" transform="translate(-452.876 -119.32)" fill="#6ec177" style="mix-blend-mode: soft-light;isolation: isolate"/>
                        <path id="Path_25" data-name="Path 25" d="M496.192,136.742a7.456,7.456,0,0,0,1.457-.816v11.145c0,2.035-1.176,3.719-2.593,3.719h-1.827c-1.457,0-2.594-1.684-2.594-3.719v-10.68A6.648,6.648,0,0,0,496.192,136.742Z" transform="translate(-444.14 -102.732)" fill="#6ec177" style="mix-blend-mode: soft-light;isolation: isolate"/>
                        <path id="Path_26" data-name="Path 26" d="M500.537,132.7v29.716c0,2.035-1.136,3.719-2.553,3.719h-1.867c-1.417,0-2.593-1.684-2.593-3.719V145.926a24.663,24.663,0,0,0,2.353-5.857c.606-2.38,1.092-5.11,2.553-6.5A3.476,3.476,0,0,1,500.537,132.7Z" transform="translate(-435.434 -118.072)" fill="#6ec177" style="mix-blend-mode: soft-light;isolation: isolate"/>
                    </g>
                </g>
                <g id="Group_88" data-name="Group 88" transform="translate(159.556 127.295)">
                    <g id="Group_82" data-name="Group 82" transform="translate(99.947)">
                        <g id="Group_81" data-name="Group 81" transform="translate(0 5.804)">
                            <path id="Path_27" data-name="Path 27" d="M536.952,151.158l-1.5-2.5L543.9,137.41h26.3l-.27,3.535H544.622Z" transform="translate(-535.456 -137.41)" fill="#6ec177"/>
                        </g>
                        <path id="Path_28" data-name="Path 28" d="M556.067,150.757H544.482c-1.482,0-2.548-1.78-2.38-3.977l.482-6.308c.168-2.2,1.5-3.977,2.986-3.977h11.585c1.482,0,2.548,1.78,2.38,3.977l-.482,6.308C558.885,148.977,557.549,150.757,556.067,150.757Z" transform="translate(-512.763 -136.494)" fill="#6ec177"/>
                        <path id="Path_29" data-name="Path 29" d="M547.136,139h-4.344l.144-1.892h4.344Z" transform="translate(-510.341 -133.2)" fill="#fff"/>
                        <path id="Path_30" data-name="Path 30" d="M554.471,139.7H542.716l.144-1.892h11.755Z" transform="translate(-510.602 -129.479)" fill="#fff"/>
                    </g>
                    <g id="Group_84" data-name="Group 84" transform="translate(0 23.763)">
                        <g id="Group_83" data-name="Group 83" transform="translate(11.973 5.805)">
                            <path id="Path_31" data-name="Path 31" d="M546.995,154.91l1.877-2.5-6.732-11.249h-26.3l-.27,3.535h25.315Z" transform="translate(-515.568 -141.162)" fill="#6ec177"/>
                        </g>
                        <path id="Path_32" data-name="Path 32" d="M515.258,154.509h11.584c1.482,0,2.818-1.78,2.986-3.977l.482-6.308c.168-2.2-.9-3.977-2.38-3.977H516.346c-1.482,0-2.818,1.78-2.986,3.977l-.482,6.308C512.71,152.729,513.776,154.509,515.258,154.509Z" transform="translate(-512.861 -140.246)" fill="#6ec177"/>
                        <path id="Path_33" data-name="Path 33" d="M515.166,142.757h4.344l.145-1.893h-4.344Z" transform="translate(-504.969 -136.952)" fill="#fff"/>
                        <path id="Path_34" data-name="Path 34" d="M513.415,143.454h11.755l.145-1.893H513.56Z" transform="translate(-510.965 -133.231)" fill="#fff"/>
                    </g>
                    <g id="Group_86" data-name="Group 86" transform="translate(97.282 92.868)">
                        <g id="Group_85" data-name="Group 85">
                            <path id="Path_35" data-name="Path 35" d="M536.731,151.157l-1.878,2.5,6.732,11.248h26.3l.269-3.535H542.843Z" transform="translate(-534.854 -151.157)" fill="#6ec177"/>
                        </g>
                        <path id="Path_36" data-name="Path 36" d="M556.211,151.992H544.627c-1.482,0-2.822,1.78-2.99,3.977l-.478,6.314c-.168,2.2.9,3.977,2.38,3.977h11.585c1.482,0,2.818-1.78,2.986-3.977l.482-6.314C558.755,153.772,557.693,151.992,556.211,151.992Z" transform="translate(-513.33 -146.706)" fill="#6ec177"/>
                        <path id="Path_37" data-name="Path 37" d="M546.338,152.59h-4.344l-.144,1.893h4.344Z" transform="translate(-510.903 -143.514)" fill="#fff"/>
                        <path id="Path_38" data-name="Path 38" d="M553.63,153.328H541.875l-.144,1.893h11.755Z" transform="translate(-511.311 -139.581)" fill="#fff"/>
                    </g>
                    <g id="Group_87" data-name="Group 87" transform="translate(39.526 6.644)">
                        <path id="Path_39" data-name="Path 39" d="M555.673,212.841l-1.451,19.025c-18.773,0-32.587-21.065-32.423-48.1.022-1.856.089-3.768.234-5.687,1.133-14.833,6.188-28.24,13.518-38.051l8.055,13.465c-4.755,6.283-8.046,15.016-8.776,24.586C533.361,197.287,542.672,212.841,555.673,212.841Z" transform="translate(-521.797 -124.295)" fill="#6ec177"/>
                        <path id="Path_40" data-name="Path 40" d="M583.971,191.326H571.13a46.335,46.335,0,0,0-1.853-17.467c-3.247-10.349-10.267-17.29-18.95-17.29-6.5,0-12.647,3.889-17.366,10.171l-8.055-13.465c7.281-9.69,16.822-15.732,26.877-15.732,16.548,0,29.225,16.391,31.871,38.887A76.884,76.884,0,0,1,583.971,191.326Z" transform="translate(-511.152 -137.543)" fill="#6ec177"/>
                        <path id="Path_41" data-name="Path 41" d="M569.521,146.035c-2.269,29.735-20.374,53.789-40.394,53.789l1.451-19.025c4.843,0,9.532-2.217,13.571-5.922,0,0,.04,0,.044-.063,6.693-6.219,11.576-16.809,12.487-28.779Z" transform="translate(-496.702 -92.252)" fill="#6ec177"/>
                    </g>
                    <path id="Path_42" data-name="Path 42" d="M594.616,160.744c-2.269,29.735-20.374,53.789-40.394,53.789-18.773,0-32.587-21.065-32.423-48.1a25.606,25.606,0,0,1,2.424,4.243,74.4,74.4,0,0,1,4.132,13.585c.938,4.066,1.871,8.252,3.769,11.425a17.9,17.9,0,0,0,4.667,4.965,19.474,19.474,0,0,0,18.273,2.812,23.381,23.381,0,0,0,8.926-5.865,27.866,27.866,0,0,0,5.255-8.012s.04,0,.044-.063c6.693-6.219,11.576-16.809,12.487-28.779a46.341,46.341,0,0,0-1.854-17.467c1.977,1.077,3.747,2.749,5.746,3.528,2.778,1.14,5.808.6,8.63-.956A76.9,76.9,0,0,1,594.616,160.744Z" transform="translate(-482.271 -100.318)" fill="#6ec177" style="mix-blend-mode: soft-light;isolation: isolate"/>
                </g>
                <g id="Group_89" data-name="Group 89" transform="translate(138.763 261.983)">
                    <path id="Path_43" data-name="Path 43" d="M588.265,167.988l-2.849,23.18c-.456,3.1-2.588,5.7-4.8,5.7H515.58c-2.3,0-3.786-2.6-3.419-5.7l2.849-23.18c.367-3.224,2.5-5.827,4.8-5.827h65.041C587.053,162.161,588.633,164.764,588.265,167.988Z" transform="translate(-494.655 -162.161)" fill="#6ec177"/>
                    <path id="Path_44" data-name="Path 44" d="M645.8,177.069l-2.022,16.118c-.367,3.217-2.5,5.82-4.8,5.82H514.122c-2.212,0-3.791-2.6-3.335-5.82l1.933-16.118c.367-3.224,2.588-5.827,4.8-5.827H642.383C644.59,171.242,646.169,173.845,645.8,177.069Z" transform="translate(-499.438 -113.729)" fill="#6ec177"/>
                    <path id="Path_45" data-name="Path 45" d="M622.313,184.209l-2.022,16.239c-.367,3.1-2.5,5.7-4.8,5.7H512.9c-2.212,0-3.786-2.6-3.419-5.7l.186-1.742,1.831-14.5c.372-3.224,2.5-5.706,4.8-5.706h102.6C621.189,178.5,622.68,180.986,622.313,184.209Z" transform="translate(-503.821 -75.003)" fill="#6ec177"/>
                    <path id="Path_46" data-name="Path 46" d="M643.227,191.445,641.3,207.684c-.456,3.224-2.587,5.706-4.8,5.706H511.635c-2.3,0-3.787-2.483-3.419-5.706l2.021-16.239c.367-3.1,2.5-5.7,4.8-5.7H639.9C642.108,185.745,643.6,188.348,643.227,191.445Z" transform="translate(-508.16 -36.38)" fill="#6ec177"/>
                    <path id="Path_47" data-name="Path 47" d="M519.319,185.214a34.557,34.557,0,0,1,6.118-23.053h35.347c2.208,0,3.787,2.6,3.419,5.827l-2.849,23.18c-.456,3.1-2.588,5.7-4.8,5.7H522.8A36.332,36.332,0,0,1,519.319,185.214Z" transform="translate(-470.593 -162.161)" fill="#6ec177" style="mix-blend-mode: soft-light;isolation: isolate"/>
                    <path id="Path_48" data-name="Path 48" d="M509.481,200.448l.186-1.742c9.825-3.718,20.171-4.953,30.256-7.929,7.966-2.356,16.2-6.074,23.032-12.274h55.938c2.3,0,3.786,2.483,3.419,5.706l-2.022,16.239c-.367,3.1-2.5,5.7-4.8,5.7H512.9C510.689,206.148,509.114,203.545,509.481,200.448Z" transform="translate(-503.821 -75.003)" fill="#6ec177" style="mix-blend-mode: soft-light;isolation: isolate"/>
                    <path id="Path_49" data-name="Path 49" d="M643.227,191.445,641.3,207.684c-.456,3.224-2.587,5.706-4.8,5.706H511.635c-2.3,0-3.787-2.483-3.419-5.706l2.021-16.239c.367-3.1,2.5-5.7,4.8-5.7H639.9C642.108,185.745,643.6,188.348,643.227,191.445Z" transform="translate(-508.16 -36.38)" fill="#6ec177" style="mix-blend-mode: soft-light;isolation: isolate"/>
                    <path id="Path_50" data-name="Path 50" d="M602.233,177.069l-2.022,16.118c-.367,3.217-2.5,5.82-4.8,5.82H527.195a30.915,30.915,0,0,0,1.809-8.55c.385-7.435-1.973-13.515-5.569-19.215h75.379C601.021,171.242,602.6,173.845,602.233,177.069Z" transform="translate(-455.87 -113.729)" fill="#6ec177" style="mix-blend-mode: soft-light;isolation: isolate"/>
                </g>
                <g id="Group_90" data-name="Group 90" transform="translate(286.26 429.717)">
                    <rect id="Rectangle_6" data-name="Rectangle 6" width="105.438" height="75.337" rx="2.546" transform="translate(0 0)" fill="#6ec177"/>
                    <rect id="Rectangle_7" data-name="Rectangle 7" width="105.438" height="12.562" transform="translate(0 14.422)" fill="#6ec177"/>
                    <path id="Path_51" data-name="Path 51" d="M563.057,208.184H570.9a5.379,5.379,0,0,0,5.266-5.48h0a5.377,5.377,0,0,0-5.266-5.48h-7.844a5.374,5.374,0,0,0-5.262,5.48h0A5.377,5.377,0,0,0,563.057,208.184Z" transform="translate(-478.093 -140.183)" fill="#6ec177"/>
                </g>
                <g id="Group_91" data-name="Group 91" transform="translate(398.857)">
                    <path id="Path_52" data-name="Path 52" d="M646.8,118.967v58.482c0,.716-.385,1.267-.885,1.267H568.871c-.885,0-1.19-1.71-.425-2.312l28.4-22.781,8.953-7.207a.717.717,0,0,1,.8,0l5.844,4.186a.632.632,0,0,0,.885-.114l32.083-32.515C645.993,117.422,646.8,117.973,646.8,118.967Z" transform="translate(-563.364 -89.568)" fill="#6ec177"/>
                    <path id="Path_53" data-name="Path 53" d="M644.458,113.3l-20.578,7.5,5.676,4.661L612.68,143.793l-8.258-14.345c-.743-1.3-2.066-1.552-3.026-.564L566.96,164.509l2.61,5.174,32.747-33.871,8.285,14.4c.757,1.324,2.119,1.545,3.066.513l18.587-20.172,1.6,9.088Z" transform="translate(-566.96 -113.304)" fill="#6ec177"/>
                    <path id="Path_54" data-name="Path 54" d="M646.8,121.568v35.543c0,.716-.385,1.267-.885,1.267H568.871c-.885,0-1.19-1.71-.425-2.312l28.4-22.781c6.378-.494,12.757,1.324,19.1,2.533,7.228,1.374,14.871,1.868,21.48-2.476C641.264,130.808,644.493,126.628,646.8,121.568Z" transform="translate(-563.364 -69.229)" fill="#6ec177" style="mix-blend-mode: soft-light;isolation: isolate"/>
                </g>
                <path id="Path_55" data-name="Path 55" d="M607.663,175.686c-9.541-19.209-25.258-31.711-42.978-31.711a38.61,38.61,0,0,0-18.357,4.7,47.6,47.6,0,0,0-7.966,5.364c-1.062.855-2.128,1.83-3.149,2.806L502.245,439.381c.3.728.6,1.52.893,2.255.3,3.414.6,6.827.894,10.3.089,1.222.217,2.381.3,3.661L498.5,471.453l-1.15,9.88c-1.11,9.272,1.96,17.138,7.241,20.431l1.831-4.756-.128,5.611a10.294,10.294,0,0,0,3.919.728h12.863l-.257-12.806-.257-10.488-.6-28.05c3.751-15.187,6.6-33.237,8.519-54.46,1.787-.608,2.769-1.526,2.513-2.806-9.457-34.941-.6-49.514,1.15-68.058.084-.671.084-1.4.128-2.134,2.809-2.008,6.688-4.636,7.537-5.485,1.407-1.526,2.769-3.11,4.176-4.7a62.743,62.743,0,0,0,9.922-15.428,41.076,41.076,0,0,0,4.773.3c12.31,0,23.639-6.036,32.583-16.156,14.61-13.42,24.236-36.834,24.236-63.485A99.046,99.046,0,0,0,607.663,175.686ZM529.161,295.4l-.213.12h-.039l-.173.063A16.569,16.569,0,0,0,527.5,294.3a27.579,27.579,0,0,0-1.535-10.121,30.935,30.935,0,0,0-2.128-4.877,2.684,2.684,0,0,0,.978-.247c.469.608.982,1.222,1.451,1.767a46.9,46.9,0,0,0,4.087,4.636,53.538,53.538,0,0,0,7.113,6.036Z" transform="translate(-407.186 -13.725)" opacity="0.1"/>
                <g id="Group_92" data-name="Group 92" transform="translate(273.983 435.977)">
                    <rect id="Rectangle_8" data-name="Rectangle 8" width="105.437" height="75.338" rx="2.546" transform="translate(0 0)" fill="#ace6b2"/>
                    <rect id="Rectangle_9" data-name="Rectangle 9" width="105.437" height="12.562" transform="translate(0 14.422)" fill="#fff"/>
                    <path id="Path_56" data-name="Path 56" d="M559.457,209.944H567.3a5.374,5.374,0,0,0,5.265-5.476h0a5.375,5.375,0,0,0-5.265-5.48h-7.844a5.374,5.374,0,0,0-5.262,5.48h0A5.373,5.373,0,0,0,559.457,209.944Z" transform="translate(-474.493 -141.947)" fill="#fff"/>
                </g>
                <g id="Group_100" data-name="Group 100" transform="translate(36.2 113.359)">
                    <g id="Group_93" data-name="Group 93" transform="translate(27.794 60.068)">
                        <path id="Path_57" data-name="Path 57" d="M495.9,167.11s-1.92-3.5-1.57-6.682c.562-5.168,3.99,2.426,2.937-3.274-.446-2.407.951-5.96,1.942-6.232,4.822-1.33,6.83,7.866,3.862,13.123-.3.526-1.473,4.459-1.818,4.68C497.881,170.879,495.9,167.11,495.9,167.11Z" transform="translate(-480.888 -150.792)" fill="#3b6978"/>
                        <path id="Path_58" data-name="Path 58" d="M491.348,239.77c1.234-1.811,9.378-5.681,10.576-7.606a68.961,68.961,0,0,0,8.723-20.013c1.553-8.056,1.7-20.843,1.734-34.814.062-7.366.044-15.124.208-22.661l-6.489-1.292-7.445,52.453S490.3,241.366,491.348,239.77Z" transform="translate(-491.257 -136.976)" fill="#3b6978"/>
                    </g>
                    <g id="Group_95" data-name="Group 95" transform="translate(44.336)">
                        <path id="Path_59" data-name="Path 59" d="M601.528,216.928c0,26.651-9.626,50.065-24.231,63.479-8.263,7.625-18.061,12.078-28.58,12.078-27.345,0-49.834-29.76-52.563-67.811v-.063q-.252-3.838-.252-7.682c0-24.029,7.794-45.372,19.976-59.274,9.028-10.184,20.44-16.346,32.839-16.346,17.716,0,33.432,12.5,42.973,31.711A99.05,99.05,0,0,1,601.528,216.928Z" transform="translate(-491.899 -141.308)" fill="#6ec177"/>
                        <path id="Path_60" data-name="Path 60" d="M600.584,217.573c0,24.086-7.882,45.556-20.188,59.394-8.948,10.127-20.277,16.163-32.587,16.163-28.748,0-52.13-32.87-52.771-73.726-.04-.608-.04-1.222-.04-1.83,0-26.53,9.537-49.888,23.979-63.359,8.3-7.746,18.184-12.261,28.832-12.261,14.142,0,26.965,7.986,36.418,20.919C594.32,176.653,600.584,196.046,600.584,217.573Z" transform="translate(-494.997 -137.868)" fill="#fff"/>
                        <path id="Path_79" data-name="Path 79" d="M59.291.093c31.209-1.5,55.294,15.29,53.794,37.5S85.07,79.026,53.86,80.526-1.433,65.236.066,43.025,28.082,1.593,59.291.093Z" transform="translate(3.951 129.074) rotate(-80.783)" fill="#6ec177"/>
                        <g id="Group_94" data-name="Group 94" transform="translate(29.363 47.842)">
                            <path id="Path_61" data-name="Path 61" d="M530.272,201.847c2.773-5.39,2.813-11.761.341-20.311-.115-.38-.19-.817-.341-1.254-.08-.215-.155-.437-.265-.709-2.513-8.385-3.123-12.521-1.141-15.46a4.837,4.837,0,0,1,1.407-1.362,3.418,3.418,0,0,1,3.839.165,10.216,10.216,0,0,1,2.929,3,30.567,30.567,0,0,1,4.3,9.2c.3,1.089.57,2.02.721,2.78l3.119-2.394,2.778-2.236c-.115-.6-.305-1.2-.5-1.906a36.828,36.828,0,0,0-4.715-10.127l4.6-6.587-4.03-5.776-4.83,6.916a15.065,15.065,0,0,0-4.565-3.268,8.323,8.323,0,0,0-3.649-.868c-3.043-.108-5.857,1.526-8.139,4.788-4.565,6.536-3.614,14.757-.305,24.833.04.057.075.215.115.272,2.243,7.024,2.508,11.432.305,14.592-2.358,3.376-6.011,2.508-9.13-1.957a34.773,34.773,0,0,1-5.246-12.635c-.115-.488-.19-.925-.27-1.469l-1.862,1.469-4.1,3.268a36.574,36.574,0,0,0,4.525,12.356,17.455,17.455,0,0,0,1.292,2.179l-4.791,6.865,2.623,3.863,1.371,1.963,5.1-7.3c6.348,6.479,12.965,5.39,17.114-.659C529.4,203.316,529.852,202.556,530.272,201.847Z" transform="translate(-501.635 -148.862)" fill="#f9f9f9"/>
                        </g>
                        <path id="Path_62" data-name="Path 62" d="M604.6,197.038c0,26.651-9.626,50.065-24.232,63.479-8.948,10.127-20.277,16.163-32.587,16.163-28.748,0-52.13-32.87-52.771-73.726a21.8,21.8,0,0,1,4.216,1.767v.063a.314.314,0,0,1,.217.057,51.641,51.641,0,0,1,9.2,6.466c4.561,3.718,8.9,7.986,13.5,11.59,7.622,5.909,16.782,9.874,24.917,5.605,11.072-5.8,16.225-25.732,13.244-42.079-1.747-9.633-5.706-20-2.552-28.842a18.01,18.01,0,0,1,6-8.17c.128-.063.212-.184.341-.247,6.091-4.573,13.332-5.124,20.1-2.742a28.6,28.6,0,0,1,6.175,3.167,36.694,36.694,0,0,1,4.388,3.54A99.051,99.051,0,0,1,604.6,197.038Z" transform="translate(-494.966 -121.418)" fill="#6ec177" style="mix-blend-mode: soft-light;isolation: isolate"/>
                    </g>
                    <g id="Group_96" data-name="Group 96" transform="translate(44.887 375.136)">
                        <path id="Path_63" data-name="Path 63" d="M504.932,202.611l.743,10.779c3.145,1.336,5.578,3.927,8.435,5.567-4.919,3.578-11.28,2.141-18.4-1.944-1.168-2.812,3.693-7.366.787-16.473Z" transform="translate(-493.743 -200.54)" fill="#e8b685"/>
                        <path id="Path_64" data-name="Path 64" d="M510.946,217.1c-3.72-.222-3.41-6.1-6.047-6.1-2.557,0-4.105,2.552-4.105,8.208-.079,4-.544,4.218-.544,4.218-.7.779-1.473.443-1.938-.222,0,0,.31-6.878-1.239-8.658-.929-1.108-1.862-4.769-1.937-7.429-.08-1.666.155-3,.774-3.553a2.232,2.232,0,0,1,1.084-.557c4.419-1.552,12.323,7.549,17.746,3.439.08,0,.08-.108.155,0,1.163-.665,3.875,1,5.658,2.223a13.926,13.926,0,0,1,1.707,1.108C526.52,214.545,514.666,217.433,510.946,217.1Z" transform="translate(-495.122 -188.35)" fill="#8e6b93"/>
                    </g>
                    <g id="Group_97" data-name="Group 97" transform="translate(9.798 376.428)">
                        <path id="Path_65" data-name="Path 65" d="M500.992,208l-2.707,10.108c2.393,3.217,3.76,7.087,5.8,10.387-5.516.044-10.753-5.314-15.849-13.534-.164-3.262,5.6-4.212,5.857-14.218Z" transform="translate(-483.604 -200.744)" fill="#e8b685"/>
                        <path id="Path_66" data-name="Path 66" d="M500.362,224.479c-3.255-2.66-1.163-7.765-3.41-9.43-2.327-1.552-4.494-.222-6.277,4.775-1.239,3.325-1.783,3.439-1.862,3.439-.849.222-1.393-.557-1.623-1.444,0,0,2.4-5.877,1.623-8.544-.619-1.773-.23-6.213.778-8.765.465-1,1-1.666,1.548-1.773a2.37,2.37,0,0,1,1.238.108c4.419,1.666,8.6,14.757,14.726,14.535.075,0,.075,0,.155.114.854.108,2.172,1.773,3.256,3.661,1.238,1.887,2.247,3.882,2.247,3.882C515.083,232.136,503.618,227.145,500.362,224.479Z" transform="translate(-487.189 -190.368)" fill="#8e6b93"/>
                    </g>
                    <path id="Path_67" data-name="Path 67" d="M526.6,336.054c-7.091,1.438-14.234,2.932-17.636.494l1.477-70.5c-10.926-28.177-23.431-54.441-19.295-76.855l17.751-13.477c7.431,35.378,15.455,67.323,16.181,90Z" transform="translate(-466.632 42.217)" fill="#e2e1f9"/>
                    <path id="Path_68" data-name="Path 68" d="M501.543,329.986c-6.613-3.914-10.895-5.877-12.965-10.45l24.86-67.418c-2.4-27.974-5.246-55.651-1.371-73.156l28.292,5.941c-2.676,35.885-7.8,63.289-15.208,83.366Z" transform="translate(-472.636 59.508)" fill="#e8e5ff"/>
                    <path id="Path_69" data-name="Path 69" d="M510.934,215.406c-3.72-.222-3.41-6.1-6.047-6.1-2.557,0-4.105,2.552-4.105,8.208-.08,4-.544,4.218-.544,4.218-.7.779-1.473.443-1.938-.222,0,0,.31-6.878-1.239-8.658-.929-1.108-1.862-4.769-1.937-7.429a4.8,4.8,0,0,1,1.858-1.666,2.831,2.831,0,0,1,.854-.222,7.336,7.336,0,0,1,3.41-.336,8.439,8.439,0,0,1,2.712.779,16.918,16.918,0,0,1,2.247,1.887c.389.329.774.773,1.239,1.108,2.092,1.773,4.419,3.217,6.9,3.439,2.4.114,4.494-1.222,6.2-3.439a13.915,13.915,0,0,1,1.707,1.108C526.509,212.854,514.654,215.742,510.934,215.406Z" transform="translate(-450.223 188.477)" opacity="0.1"/>
                    <path id="Path_70" data-name="Path 70" d="M500.362,222.946c-3.255-2.66-1.163-7.765-3.41-9.43-2.327-1.552-4.494-.222-6.277,4.775-1.239,3.325-1.783,3.439-1.862,3.439-.849.222-1.393-.557-1.623-1.444,0,0,2.4-5.877,1.623-8.544-.619-1.773-.23-6.213.778-8.765.155,1.773.23,3.439.385,5.212a8.436,8.436,0,0,1,6.277,1.115,12.982,12.982,0,0,1,4.729,4.547l.234.336c1.469,2.66,2.787,5.991,5.189,6.656,1.4.329,2.791-.779,4.109-1.222,1.238,1.887,2.247,3.882,2.247,3.882C515.083,230.6,503.618,225.612,500.362,222.946Z" transform="translate(-477.391 187.594)" opacity="0.1"/>
                    <path id="Path_71" data-name="Path 71" d="M484.974,209.04c0,1.514,7.989,2.742,17.839,2.742s17.84-1.229,17.84-2.742-7.989-2.749-17.84-2.749S484.974,207.52,484.974,209.04Z" transform="translate(-484.974 205.268)" opacity="0.1"/>
                    <path id="Path_72" data-name="Path 72" d="M488.583,288.483s0,.127.084.127a22.568,22.568,0,0,0,3.928-5.991c5.976-11.362,11.523-23.091,16.813-35.194,1.451-3.173,2.818-6.473,4.012-9.893,2.132-6.6,3.326-13.686,4.521-20.773.854-4.522-3.41-9.291-3.751-13.933-.257-5.01-3.331-18.05-3.331-18.05s.257,9.861,2.561,36.379Z" transform="translate(-472.619 90.516)" opacity="0.1"/>
                    <path id="Path_73" data-name="Path 73" d="M490.029,267.137c5.68,11.552,48.618,16.714,47.091,8.974-9.444-34.947-.588-49.527,1.172-68.039a61.12,61.12,0,0,0,.159-8.917,70.066,70.066,0,0,0-4.7-21.2l-.04-.057c-4.583-5.662-21.117-17.664-27.66-14.244-13.159,8.468-13.279,54.182-15.513,94.455C490.383,261.19,490.223,264.167,490.029,267.137Z" transform="translate(-467.669 -25.362)" fill="#204051"/>
                    <g id="Group_98" data-name="Group 98" transform="translate(24.858 96.386)">
                        <path id="Path_74" data-name="Path 74" d="M496.1,175.049c1.451-3.914.818-7.619,1.2-13.484h7.971c-1.981,9.342-.5,14.161.73,18.094C502.567,182.047,498.931,176.467,496.1,175.049Z" transform="translate(-471.73 -129.657)" fill="#091217"/>
                        <path id="Path_75" data-name="Path 75" d="M498.9,189.276c5.184.608,11.81,4.471,14.924.361,2.353-9.658-.517-27.037-2.981-32.351L495.126,161.7Z" transform="translate(-475.078 -152.478)" fill="#091217"/>
                        <path id="Path_76" data-name="Path 76" d="M525.522,180.018c12.266-3.148,9.174-17.822,6.874-21.109-4.2-6-9.408,1.577-13.27-1.2-5.242-3.775-12.363,4.617-13.912,13.072-1.362,7.48-.111,10.539,1.557,16.213s-2.451,11.843-10.789,20.127c-15.371,15.27,4.609,63.884,28.885,19.551,9.811-17.917,2.437-29.862-1.619-35.663C520.993,187.776,520.944,181.2,525.522,180.018Z" transform="translate(-490.594 -156.527)" fill="#091217"/>
                    </g>
                    <g id="Group_99" data-name="Group 99" transform="translate(64.453 77.733)">
                        <path id="Path_77" data-name="Path 77" d="M507.239,169.411s-.593-3.749-.787-6.96,3.662,3.331,3.273-2.54c-.164-2.476-1.61-6.3-.606-6.327,4.914-.177,9.072,9.994,5.542,14.484-.354.45-1.964,4.053-2.327,4.186C508.76,173.591,507.239,169.411,507.239,169.411Z" transform="translate(-475.926 -153.582)" fill="#3b6978"/>
                        <path id="Path_78" data-name="Path 78" d="M503.057,245.186c1.19-1.286,9.077-6.34,10.293-7.663,1.425-1.495,2.8-3.078,4.2-4.7a59.528,59.528,0,0,0,10.895-17.7c2.45-7.581,4.061-20.159,5.688-33.934.907-7.252,1.778-14.909,2.8-22.306l-6.255-2.793-13.346,50-16.818,7.9-.053-.013-.92.45,2.6,16.15C502.115,230.613,503.057,245.186,503.057,245.186Z" transform="translate(-499.545 -140.209)" fill="#3b6978"/>
                    </g>
                </g>
            </g>
        </g>
    </g>
</svg>
