<svg xmlns="http://www.w3.org/2000/svg" width="78.709" height="72.243" viewBox="0 0 78.709 72.243">
    <g id="chat_1_" data-name="chat (1)" transform="translate(0 -2.465)">
        <path id="Path_20" data-name="Path 20" d="M10.312,26.089H27.366a1.312,1.312,0,1,0,0-2.624H10.312a1.312,1.312,0,1,0,0,2.624Z" transform="translate(2.806 6.548)"/>
        <path id="Path_21" data-name="Path 21" d="M44.419,29.465H10.312a1.312,1.312,0,1,0,0,2.624H44.419a1.312,1.312,0,0,0,0-2.624Z" transform="translate(2.806 8.419)"/>
        <path id="Path_22" data-name="Path 22" d="M44.419,35.465H10.312a1.312,1.312,0,0,0,0,2.624H44.419a1.312,1.312,0,0,0,0-2.624Z" transform="translate(2.806 10.29)"/>
        <path id="Path_23" data-name="Path 23" d="M70.933,2.557,26.145,2.465a7.788,7.788,0,0,0-7.779,7.779v6.722l-10.586.022A7.788,7.788,0,0,0,0,24.767V52.5a7.786,7.786,0,0,0,7.779,7.778h7.963V73.4a1.312,1.312,0,0,0,2.283.883l12.73-14,21.81-.089a7.787,7.787,0,0,0,7.779-7.778V52.26l6.9,7.59a1.312,1.312,0,0,0,2.283-.883V45.85h1.4a7.787,7.787,0,0,0,7.779-7.778V10.336A7.788,7.788,0,0,0,70.933,2.557ZM57.72,52.407a5.161,5.161,0,0,1-5.161,5.154l-22.393.092a1.313,1.313,0,0,0-.965.429L18.366,70V58.965a1.311,1.311,0,0,0-1.312-1.312H7.779A5.161,5.161,0,0,1,2.624,52.5V24.766a5.162,5.162,0,0,1,5.158-5.155l11.9-.025h0l32.885-.068a5.161,5.161,0,0,1,5.155,5.155V52.407ZM76.086,38.069a5.16,5.16,0,0,1-5.155,5.154H68.215A1.311,1.311,0,0,0,66.9,44.535V55.573l-6.559-7.215V24.674A7.788,7.788,0,0,0,52.562,16.9l-31.573.064V10.243a5.161,5.161,0,0,1,5.153-5.155l44.787.092h0a5.161,5.161,0,0,1,5.155,5.155V38.069Z" transform="translate(0 0)"/>
    </g>
</svg>
