<svg xmlns="http://www.w3.org/2000/svg" width="72.246" height="72.243" viewBox="0 0 72.246 72.243">
    <g id="mission" transform="translate(0)">
        <path id="Path_13" data-name="Path 13" d="M55.687,59.139H1.5A1.506,1.506,0,0,1,.183,56.911L27.275,7.244a1.567,1.567,0,0,1,2.643,0L57.009,56.911a1.506,1.506,0,0,1-1.321,2.228ZM4.039,56.129H53.15L28.6,11.109Z" transform="translate(0 13.105)" fill="#3d4043"/>
        <path id="Path_14" data-name="Path 14" d="M40.239,46.112H25.189a1.505,1.505,0,1,1,0-3.01h12.5L23.771,17.786,18.034,29.658a1.505,1.505,0,1,1-2.709-1.312l7.008-14.5A1.509,1.509,0,0,1,23.648,13a1.585,1.585,0,0,1,1.358.78l16.556,30.1a1.507,1.507,0,0,1-1.321,2.231Z" transform="translate(30.499 26.132)" fill="#3d4043"/>
        <path id="Path_15" data-name="Path 15" d="M10.505,22.576A1.506,1.506,0,0,1,9,21.071V1.505A1.506,1.506,0,0,1,10.505,0H28.566a1.507,1.507,0,0,1,1.066,2.571L24.674,7.525l4.955,4.955a1.507,1.507,0,0,1-1.063,2.571H12.01v6.02a1.506,1.506,0,0,1-1.505,1.505ZM12.01,12.041H24.933l-3.45-3.45a1.506,1.506,0,0,1,0-2.128l3.45-3.453H12.01Z" transform="translate(18.091)" fill="#3d4043"/>
        <path id="Path_16" data-name="Path 16" d="M21.411,21.008c-.036,0-.069,0-.108,0a1.5,1.5,0,0,1-1.1-.6L16.9,15.993l-3.311,4.413a1.513,1.513,0,0,1-1.1.6,1.455,1.455,0,0,1-1.171-.436L6.261,15.512a1.5,1.5,0,0,1,2.128-2.128l3.829,3.829,3.474-4.633a1.559,1.559,0,0,1,2.408,0l3.474,4.633L25.4,13.384a1.5,1.5,0,1,1,2.128,2.128l-5.057,5.057a1.5,1.5,0,0,1-1.063.439Z" transform="translate(11.7 24.144)" fill="#3d4043"/>
    </g>
</svg>
